<svg xmlns="http://www.w3.org/2000/svg" width="84" height="56" fill="none"><rect x=".5" y=".5" width="83" height="55" rx="1.5" stroke="#b6c0c6"/><path d="M54.679 26.6h16.643c.487 0 .779-.358.779-.716V11.916c0-.448-.389-.716-.779-.716H54.679c-.487 0-.779.358-.779.716v13.878a.82.82 0 0 0 .779.806zm-21 0h16.643c.487 0 .779-.358.779-.716V11.916c0-.448-.389-.716-.779-.716H33.679c-.487 0-.779.358-.779.716v13.878a.82.82 0 0 0 .779.806zm-21 0h16.643c.487 0 .779-.358.779-.716V11.916c0-.448-.389-.716-.779-.716H12.679c-.487 0-.779.358-.779.716v13.878a.82.82 0 0 0 .779.806zm42 18.2h16.643c.487 0 .779-.358.779-.716V30.116c0-.448-.389-.716-.779-.716H54.679c-.487 0-.779.358-.779.716v13.878a.82.82 0 0 0 .779.806zm-21 0h16.643c.487 0 .779-.358.779-.716V30.116c0-.448-.389-.716-.779-.716H33.679c-.487 0-.779.358-.779.716v13.878a.82.82 0 0 0 .779.806zm-21 0h16.643c.487 0 .779-.358.779-.716V30.116c0-.448-.389-.716-.779-.716H12.679c-.487 0-.779.358-.779.716v13.878a.82.82 0 0 0 .779.806z" fill="#8796a1"/><path d="M8 25l-3.2 3.2L8 31.4m68 0l3.2-3.2L76 25" stroke="#8796a1" stroke-width="1.5" stroke-linecap="round" stroke-linejoin="round"/></svg>