<svg xmlns="http://www.w3.org/2000/svg" width="84" height="56" fill="none" xmlns:v="https://vecta.io/nano"><rect x=".6" y=".6" width="82.8" height="54.8" rx="2.4" fill="#fff"/><rect x=".6" y=".6" width="82.8" height="54.8" rx="2.4" stroke="#8796a1" stroke-width="1.2"/><path d="M54.269 35.4h15.363c.449 0 .719-.358.719-.716V20.716c0-.448-.359-.716-.719-.716H54.269c-.449 0-.719.358-.719.716v13.878c0 .448.359.806.719.806zm-19.95 0h15.363c.449 0 .719-.358.719-.716V20.716c0-.448-.359-.716-.719-.716H34.319c-.449 0-.719.358-.719.716v13.878c0 .448.359.806.719.806zm-19.95 0h15.363c.449 0 .719-.358.719-.716V20.716c0-.448-.359-.716-.719-.716H14.369c-.449 0-.719.358-.719.716v13.878c0 .448.359.806.719.806z" fill="#58707f"/><path d="M9.66 25L6.3 28.2l3.36 3.2m64.68.4l3.36-3.2-3.36-3.2" stroke="#58707f" stroke-width="1.5" stroke-linecap="round" stroke-linejoin="round"/><circle cx="37.5" cy="40" r="1.5" fill="#b6c0c6"/><circle cx="42" cy="40" r="1.5" fill="#58707f"/><circle cx="46.5" cy="40" r="1.5" fill="#b6c0c6"/></svg>