<svg xmlns="http://www.w3.org/2000/svg" width="84" height="56" fill="none" xmlns:v="https://vecta.io/nano"><rect x=".6" y=".6" width="82.8" height="54.8" rx="2.4" fill="#fff"/><rect x=".6" y=".6" width="82.8" height="54.8" rx="2.4" stroke="#8796a1" stroke-width="1.2"/><g fill="#58707f"><path d="M6 20h5a1 1 0 0 1 1 1v14a1 1 0 0 1-1 1H6V20z"/><rect x="15" y="20" width="15" height="16" rx="1"/><rect x="33" y="20" width="15" height="16" rx="1"/><rect x="51" y="20" width="15" height="16" rx="1"/><path d="M69 21a1 1 0 0 1 1-1h4v16h-4a1 1 0 0 1-1-1V21z"/><path fill-rule="evenodd" d="M23.331 17.28c.308.293.806.293 1.114 0s.308-.768 0-1.061l-.827-.788H45.75a.75.75 0 1 0 0-1.5H23.761l.684-.651c.308-.293.308-.768 0-1.061s-.806-.293-1.114 0l-1.85 1.762a.75.75 0 0 0-.481.7l.001.035a.73.73 0 0 0 .23.564l2.1 2zM48 14.682a.75.75 0 0 1 .75-.75h4a.75.75 0 1 1 0 1.5h-4a.75.75 0 0 1-.75-.75zm8.75-.75a.75.75 0 1 0 0 1.5h2a.75.75 0 1 0 0-1.5h-2z"/></g></svg>