<svg width="117" height="100" viewBox="0 0 117 100" fill="none" xmlns="http://www.w3.org/2000/svg">
<path d="M73.9908 1.96793L94.7542 30.3936H108.252C112.991 30.3936 117 34.4023 117 39.1399C116.636 43.8775 112.626 47.8863 107.888 47.8863H8.74766C4.00935 47.8863 0 43.8775 0 39.1399C0 34.4023 4.00935 30.3936 8.74766 30.3936H21.8816L42.645 1.96793C44.1029 -0.218659 47.3833 -0.58309 49.5702 0.874636C51.7571 2.33236 52.1216 5.61224 50.6637 7.79883L34.1594 30.3936H82.4763L65.9721 7.79883C64.5142 5.61224 64.8786 2.33236 67.0656 0.874636C69.2525 -0.58309 72.5328 -0.218659 73.9908 1.96793Z" fill="#F3BBCF"/>
<path fill-rule="evenodd" clip-rule="evenodd" d="M21.8692 94.898L9.11215 47.8863H107.159L94.7663 94.898C94.0374 97.8134 91.1215 100 88.2056 100H28.4299C25.514 100 22.5981 98.1778 21.8692 94.898ZM40.4579 55.5394V75.2187C40.4579 75.9475 41.1869 76.6764 41.9159 76.6764H64.1495C64.8785 76.6764 65.6075 75.9475 65.6075 75.2187V55.5394C65.6075 54.4461 64.8785 53.7172 64.1495 53.7172H41.9159C41.1869 53.7172 40.4579 54.8105 40.4579 55.5394ZM74.7196 76.6764C75.4486 76.6764 76.1776 75.9475 76.1776 75.2187V55.5394C76.1776 54.4461 75.4486 53.7172 74.7196 53.7172H68.8878V76.6764H74.7196Z" fill="#F3BBCF"/>
</svg>
