<?xml version="1.0" encoding="UTF-8"?>
<svg xmlns="http://www.w3.org/2000/svg" version="1.1" xmlns:xlink="http://www.w3.org/1999/xlink" viewBox="0 0 140.1 23.1">
  <defs>
    <style>
      .cls-1 {
        fill: #fff;
      }

      .cls-2 {
        fill: #3c3c3c;
      }

      .cls-3 {
        fill: url(#linear-gradient);
      }
    </style>
    <linearGradient id="linear-gradient" x1="0" y1="11.5" x2="27" y2="11.5" gradientUnits="userSpaceOnUse">
      <stop offset="0" stop-color="#922968"/>
      <stop offset="1" stop-color="#ca2b5e"/>
    </linearGradient>
  </defs>
  <!-- Generator: Adobe Illustrator 28.6.0, SVG Export Plug-In . SVG Version: 1.2.0 Build 709)  -->
  <g>
    <g id="Layer_1">
      <g>
        <g>
          <path class="cls-3" d="M24.7,6.9h-2.7L17.3.5c-.4-.6-1.2-.7-1.8-.3-.6.4-.7,1.2-.3,1.8l3.5,4.8h-10.6l3.5-4.8c.4-.6.3-1.4-.3-1.8-.6-.4-1.4-.3-1.8.3l-4.6,6.3h-2.7c-1.3,0-2.3,1-2.3,2.3v.9c0,.5.4.8.8.8h1.2l2.8,11.1c.1.6.7,1,1.3,1h14.7c.6,0,1.2-.4,1.3-1l2.8-11.1h1.2c.5,0,.8-.4.8-.8v-.9c0-1.3-1-2.3-2.3-2.3Z"/>
          <g>
            <rect class="cls-1" x="8.8" y="11.9" width="6.5" height="6" rx=".3" ry=".3"/>
            <rect class="cls-1" x="16.2" y="11.9" width="1.9" height="6" rx=".3" ry=".3"/>
          </g>
        </g>
        <g>
          <path class="cls-2" d="M36.1,18.9l-3.2-12.2h0c0-.2,0-.2.2-.2h2.2c.1,0,.2,0,.2.2l1.7,7.3s0,0,0,0,0,0,0,0l1.7-7.3c0-.1.1-.2.2-.2h2.2c.1,0,.2,0,.3.2l1.8,7.3s0,0,0,0c0,0,0,0,0,0l1.7-7.3c0-.1.1-.2.2-.2h2.1c.2,0,.2,0,.2.2l-3,12.2c0,.1-.1.2-.3.2h-2.1c-.1,0-.2,0-.2-.2l-1.8-7.8s0,0,0,0,0,0,0,0l-1.7,7.8c0,.1-.1.2-.2.2h-2c-.1,0-.2,0-.3-.2Z"/>
          <path class="cls-2" d="M49.5,18.4c-.7-.5-1.2-1.2-1.5-2.2-.2-.6-.3-1.2-.3-1.8s0-1.3.3-1.9c.3-.9.8-1.6,1.5-2.1.7-.5,1.6-.8,2.6-.8s1.8.2,2.5.7c.7.5,1.2,1.2,1.5,2.1.2.6.3,1.2.3,1.9s0,1.3-.3,1.8c-.3.9-.8,1.7-1.5,2.2-.7.5-1.6.8-2.6.8s-1.9-.3-2.6-.8ZM53.1,16.7c.3-.2.5-.6.6-1,0-.4.1-.8.1-1.3s0-.9-.1-1.3c-.1-.4-.3-.7-.6-1-.3-.2-.6-.3-1-.3s-.7.1-1,.3c-.3.2-.5.5-.6,1,0,.3-.1.7-.1,1.3s0,1,.1,1.3c.1.4.3.8.6,1,.3.2.6.4,1,.4s.7-.1,1-.4Z"/>
          <path class="cls-2" d="M59.6,18.4c-.7-.5-1.2-1.2-1.5-2.2-.2-.6-.3-1.2-.3-1.8s0-1.3.3-1.9c.3-.9.8-1.6,1.5-2.1s1.6-.8,2.6-.8,1.8.2,2.5.7c.7.5,1.2,1.2,1.5,2.1.2.6.3,1.2.3,1.9s0,1.3-.3,1.8c-.3.9-.8,1.7-1.5,2.2-.7.5-1.6.8-2.6.8s-1.9-.3-2.6-.8ZM63.2,16.7c.3-.2.5-.6.6-1,0-.4.1-.8.1-1.3s0-.9-.1-1.3c-.1-.4-.3-.7-.6-1-.3-.2-.6-.3-1-.3s-.7.1-1,.3c-.3.2-.5.5-.6,1,0,.3-.1.7-.1,1.3s0,1,.1,1.3c.1.4.3.8.6,1,.3.2.6.4,1,.4s.7-.1,1-.4Z"/>
          <path class="cls-2" d="M70.2,18.7c-.7-.4-1.3-.9-1.6-1.5-.4-.7-.6-1.4-.6-2.3v-4.2c0-.9.2-1.6.6-2.3.4-.7.9-1.2,1.6-1.5s1.5-.5,2.5-.5,1.7.2,2.4.5c.7.3,1.2.8,1.6,1.5.4.6.6,1.4.6,2.2s0,.2-.2.2h-2.1c0,.1,0,.1,0,.1-.1,0-.2,0-.2-.2,0-.6-.2-1.1-.6-1.5-.4-.4-.9-.6-1.5-.6s-1.2.2-1.6.6c-.4.4-.6.9-.6,1.5v4.3c0,.6.2,1.1.6,1.5.4.4.9.6,1.6.6s1.1-.2,1.5-.6c.4-.4.6-.9.6-1.5s0-.2.2-.2h2.1c0,0,.1.1.2.1s0,0,0,.1c0,.8-.2,1.6-.6,2.2-.4.6-.9,1.1-1.6,1.5s-1.5.5-2.4.5-1.8-.2-2.5-.5Z"/>
          <path class="cls-2" d="M84.8,10.1c.6.3,1.1.6,1.4,1.1s.5,1,.5,1.6v6.1c0,0,0,.1,0,.2s0,0-.2,0h-2.1c0,0-.1,0-.2,0,0,0,0,0,0-.2v-.6s0,0,0,0,0,0,0,0c-.5.7-1.3,1-2.4,1s-1.7-.2-2.3-.7-.9-1.1-.9-2,.3-1.6,1-2.2c.6-.5,1.6-.8,2.8-.8h1.8c0,0,0,0,0,0v-.4c0-.4-.1-.7-.4-.9-.2-.2-.6-.3-1.1-.3s-.7,0-.9.2c-.2.1-.4.3-.5.6,0,.1-.1.2-.2.2l-2.2-.3c-.1,0-.2,0-.2-.2,0-.5.2-1,.6-1.4.4-.4.8-.7,1.4-1,.6-.2,1.2-.3,2-.3s1.5.1,2.1.4ZM83.6,16.9c.4-.3.5-.6.5-1.1v-.6c0,0,0,0,0,0h-1.3c-.5,0-1,.1-1.3.3-.3.2-.5.5-.5.9s.1.6.3.8c.2.2.5.3.9.3s1-.1,1.3-.4Z"/>
          <path class="cls-2" d="M93.5,11.8s0,0-.2,0h-1.7c0,0,0,0,0,0v3.8c0,.4,0,.7.2.9.2.2.4.3.8.3h.6c0,0,.1,0,.2,0,0,0,0,0,0,.2v1.7c0,.1,0,.2-.2.2-.5,0-.9,0-1.1,0-1,0-1.7-.2-2.2-.5-.5-.3-.7-1-.8-1.9v-4.8c0,0,0,0,0,0h-1c0,0-.1,0-.2,0,0,0,0,0,0-.2v-1.6c0,0,0-.1,0-.2,0,0,0,0,.2,0h1c0,0,0,0,0,0v-2.1c0,0,0-.1,0-.2,0,0,0,0,.2,0h2c0,0,.1,0,.2,0,0,0,0,0,0,.2v2.1c0,0,0,0,0,0h1.7c0,0,.1,0,.2,0,0,0,0,0,0,.2v1.6c0,0,0,.1,0,.2Z"/>
          <path class="cls-2" d="M103.3,15c0,.1,0,.2-.2.2h-5.6c0,0,0,0,0,0,0,.2.1.5.2.7.3.7.9,1,1.9,1,.8,0,1.4-.3,1.8-.9,0,0,.1-.1.2-.1s0,0,.1,0l1.3,1.3c0,0,0,.1,0,.2s0,0,0,.1c-.4.5-.9.9-1.5,1.1-.6.3-1.3.4-2.1.4s-1.9-.2-2.6-.7c-.7-.5-1.2-1.1-1.5-2-.3-.6-.4-1.4-.4-2.4s0-1.2.3-1.7c.3-.9.8-1.5,1.4-2,.7-.5,1.5-.8,2.5-.8s2.2.3,2.9,1c.7.7,1.2,1.6,1.3,2.8,0,.5,0,1,0,1.5ZM97.5,12.9c0,.2,0,.3-.1.6,0,0,0,0,0,0h3.1c0,0,0,0,0,0,0-.3,0-.5,0-.5-.1-.4-.3-.6-.6-.8-.3-.2-.6-.3-1-.3-.8,0-1.3.4-1.5,1.1Z"/>
          <path class="cls-2" d="M110.5,9.9s0,0,.2,0h2.1c0,0,.1,0,.2,0,0,0,0,0,0,.2v8.2c0,1.6-.5,2.7-1.4,3.4s-2.1,1-3.5,1-.9,0-1.4,0c-.1,0-.2,0-.2-.2v-1.9c0-.2.2-.2.3-.2.4,0,.8.1,1.2.1.8,0,1.4-.2,1.8-.5.4-.3.6-.9.6-1.6s0,0,0,0c0,0,0,0,0,0-.5.5-1.1.7-2,.7s-1.5-.2-2.2-.6-1.1-1-1.4-1.8c-.2-.6-.3-1.3-.3-2.1s.1-1.7.3-2.3c.3-.7.7-1.3,1.3-1.8.6-.4,1.3-.7,2.1-.7s1.6.3,2.1.8c0,0,0,0,0,0s0,0,0,0v-.4c0,0,0-.1,0-.2ZM110.5,14.4c0-.4,0-.7,0-.9s0-.4-.1-.6c-.1-.3-.3-.6-.5-.8s-.6-.3-.9-.3-.7,0-.9.3-.4.5-.6.8c-.2.4-.3.8-.3,1.5s0,1.2.2,1.4c.1.3.3.6.6.8.3.2.6.3,1,.3s.7,0,1-.3.4-.5.5-.8c0-.4.1-.9.1-1.5Z"/>
          <path class="cls-2" d="M116.3,18.4c-.7-.5-1.2-1.2-1.5-2.2-.2-.6-.3-1.2-.3-1.8s0-1.3.3-1.9c.3-.9.8-1.6,1.5-2.1.7-.5,1.6-.8,2.6-.8s1.8.2,2.5.7c.7.5,1.2,1.2,1.5,2.1.2.6.3,1.2.3,1.9s0,1.3-.3,1.8c-.3.9-.8,1.7-1.5,2.2-.7.5-1.6.8-2.6.8s-1.9-.3-2.6-.8ZM119.9,16.7c.3-.2.5-.6.6-1,0-.4.1-.8.1-1.3s0-.9-.1-1.3c-.1-.4-.3-.7-.6-1-.3-.2-.6-.3-1-.3s-.7.1-1,.3c-.3.2-.5.5-.6,1,0,.3-.1.7-.1,1.3s0,1,.1,1.3c.1.4.3.8.6,1,.3.2.6.4,1,.4s.7-.1,1-.4Z"/>
          <path class="cls-2" d="M130.5,10c0,0,.1.1.1.3l-.4,2.1c0,.1,0,.2-.3.1-.2,0-.4,0-.6,0s-.2,0-.4,0c-.4,0-.8.2-1.1.5s-.5.7-.5,1.1v4.9c0,0,0,.1,0,.2,0,0,0,0-.2,0h-2.1c0,0-.1,0-.2,0,0,0,0,0,0-.2v-8.8c0,0,0-.1,0-.2,0,0,0,0,.2,0h2.1c0,0,.1,0,.2,0,0,0,0,0,0,.2v.7s0,0,0,0c0,0,0,0,0,0,.5-.7,1.2-1.1,2-1.1s.8,0,1,.3Z"/>
          <path class="cls-2" d="M131.8,22.6s0,0,0-.2v-1.7c0,0,0-.1,0-.2,0,0,0,0,.2,0,.5,0,.9,0,1.2-.1s.5-.2.7-.4.3-.5.4-.9c0,0,0,0,0-.1l-3-9s0,0,0,0c0-.1,0-.2.2-.2h2.2c.1,0,.2,0,.3.2l1.5,5.8s0,0,0,0,0,0,0,0l1.5-5.8c0-.1.1-.2.3-.2h2.2c0,0,.1,0,.2,0,0,0,0,.1,0,.2l-3.1,9.4c-.3.9-.6,1.5-.9,2-.3.4-.8.8-1.3,1-.6.2-1.4.3-2.4.3h-.1s0,0,0,0Z"/>
        </g>
      </g>
    </g>
  </g>
</svg>