<svg xmlns="http://www.w3.org/2000/svg" width="120" height="80" fill="none" xmlns:v="https://vecta.io/nano"><rect x=".75" y=".75" width="118.5" height="78.5" rx="2.25" fill="#fff"/><rect x=".75" y=".75" width="118.5" height="78.5" rx="2.25" stroke="#8796a1" stroke-width="1.5"/><path d="M77.385 14h21.231c.808 0 1.385.762 1.385 1.524v20.952c0 .889-.692 1.524-1.385 1.524H77.385C76.577 38 76 37.238 76 36.476V15.524c0-.762.692-1.524 1.385-1.524zm0 28h21.231c.808 0 1.385.762 1.385 1.524v20.952c0 .889-.692 1.524-1.385 1.524H77.385C76.577 66 76 65.238 76 64.476V43.524c0-.762.692-1.524 1.385-1.524zm-28-28h21.231c.808 0 1.385.762 1.385 1.524v20.952c0 .889-.692 1.524-1.385 1.524H49.385C48.577 38 48 37.238 48 36.476V15.524c0-.762.692-1.524 1.385-1.524zm0 28h21.231c.808 0 1.385.762 1.385 1.524v20.952c0 .889-.692 1.524-1.385 1.524H49.385C48.577 66 48 65.238 48 64.476V43.524c0-.762.692-1.524 1.385-1.524zm-28-28h21.231c.808 0 1.385.762 1.385 1.524v20.952c0 .889-.692 1.524-1.385 1.524H21.385C20.577 38 20 37.238 20 36.476V15.524c0-.762.692-1.524 1.385-1.524zm0 28h21.231c.808 0 1.385.762 1.385 1.524v20.952c0 .889-.692 1.524-1.385 1.524H21.385C20.577 66 20 65.238 20 64.476V43.524c0-.762.692-1.524 1.385-1.524z" fill="#58707f"/></svg>