<svg xmlns="http://www.w3.org/2000/svg" width="120" height="80" fill="none" xmlns:v="https://vecta.io/nano"><rect x=".75" y=".75" width="118.5" height="78.5" rx="2.25" fill="#fff"/><rect x=".75" y=".75" width="118.5" height="78.5" rx="2.25" stroke="#8796a1" stroke-width="1.5"/><g fill="#58707f"><use href="#B"/><use href="#C"/><rect x="42" y="16" width="36" height="48" rx="1.5"/><use href="#B" x="70"/><use href="#C" x="70"/></g><defs ><path id="B" d="M13.5 16h23c.875 0 1.5.698 1.5 1.397v19.206c0 .815-.75 1.397-1.5 1.397h-23c-.875 0-1.5-.698-1.5-1.397V17.397c0-.698.75-1.397 1.5-1.397z"/><path id="C" d="M13.5 42h23c.875 0 1.5.698 1.5 1.397v19.206c0 .815-.75 1.397-1.5 1.397h-23c-.875 0-1.5-.698-1.5-1.397V43.397c0-.698.75-1.397 1.5-1.397z"/></defs></svg>