<svg xmlns="http://www.w3.org/2000/svg" width="120" height="80" fill="none" xmlns:v="https://vecta.io/nano"><rect x=".75" y=".75" width="118.5" height="78.5" rx="2.25" fill="#fff"/><rect x=".75" y=".75" width="118.5" height="78.5" rx="2.25" stroke="#8796a1" stroke-width="1.5"/><path d="M79.154 16h17.692c.673 0 1.154.635 1.154 1.27v17.46c0 .741-.577 1.27-1.154 1.27H79.154C78.481 36 78 35.365 78 34.73V17.27c0-.635.577-1.27 1.154-1.27zm0 28h17.692c.673 0 1.154.635 1.154 1.27v17.46c0 .741-.577 1.27-1.154 1.27H79.154C78.481 64 78 63.365 78 62.73V45.27c0-.635.577-1.27 1.154-1.27zm-28-28h17.692c.673 0 1.154.635 1.154 1.27v17.46c0 .741-.577 1.27-1.154 1.27H51.154C50.481 36 50 35.365 50 34.73V17.27c0-.635.577-1.27 1.154-1.27zm0 28h17.692c.673 0 1.154.635 1.154 1.27v17.46c0 .741-.577 1.27-1.154 1.27H51.154C50.481 64 50 63.365 50 62.73V45.27c0-.635.577-1.27 1.154-1.27zm-28-28h17.692c.673 0 1.154.635 1.154 1.27v17.46c0 .741-.577 1.27-1.154 1.27H23.154C22.481 36 22 35.365 22 34.73V17.27c0-.635.577-1.27 1.154-1.27zm0 28h17.692c.673 0 1.154.635 1.154 1.27v17.46c0 .741-.577 1.27-1.154 1.27H23.154C22.481 64 22 63.365 22 62.73V45.27c0-.635.577-1.27 1.154-1.27z" fill="#58707f"/><g stroke="#8796a1"><path d="M18 40h84"/><path d="M18 12h84v56H18z"/><path d="M46 12v56m28-56v56"/></g></svg>