<svg xmlns="http://www.w3.org/2000/svg" width="120" height="80" fill="none" xmlns:v="https://vecta.io/nano"><rect x=".75" y=".75" width="118.5" height="78.5" rx="2.25" fill="#fff"/><rect x=".75" y=".75" width="118.5" height="78.5" rx="2.25" stroke="#8796a1" stroke-width="1.5"/><path d="M78.112 38h23.776c.695 0 1.112-.512 1.112-1.023V17.023c0-.639-.556-1.023-1.112-1.023H78.112c-.695 0-1.112.512-1.112 1.023v19.826c0 .64.556 1.151 1.112 1.151zm-30 0h23.775c.695 0 1.112-.512 1.112-1.023V17.023c0-.639-.556-1.023-1.112-1.023H48.112c-.695 0-1.112.512-1.112 1.023v19.826c0 .64.556 1.151 1.112 1.151zm-30 0h23.775c.695 0 1.112-.512 1.112-1.023V17.023c0-.64-.556-1.023-1.112-1.023H18.112c-.695 0-1.112.512-1.112 1.023v19.825c0 .64.556 1.151 1.112 1.151zm60 26h23.776c.695 0 1.112-.512 1.112-1.023V43.023c0-.64-.556-1.023-1.112-1.023H78.112c-.695 0-1.112.512-1.112 1.023v19.826c0 .64.556 1.151 1.112 1.151zm-30 0h23.775c.695 0 1.112-.512 1.112-1.023V43.023c0-.64-.556-1.023-1.112-1.023H48.112c-.695 0-1.112.512-1.112 1.023v19.826c0 .64.556 1.151 1.112 1.151zm-30 0h23.775c.695 0 1.112-.512 1.112-1.023V43.023c0-.64-.556-1.023-1.112-1.023H18.112c-.695 0-1.112.512-1.112 1.023v19.826c0 .64.556 1.151 1.112 1.151z" fill="#58707f"/><path d="M11.429 35.714l-4.571 4.571 4.571 4.571m97.142.001l4.572-4.571-4.572-4.571" stroke="#8796a1" stroke-width="2.143" stroke-linecap="round" stroke-linejoin="round"/></svg>