<svg xmlns="http://www.w3.org/2000/svg" width="80" height="80" fill="none" xmlns:v="https://vecta.io/nano"><rect x=".6" y=".6" width="78.8" height="78.8" rx="2.4" fill="#fff"/><rect x=".6" y=".6" width="78.8" height="78.8" rx="2.4" stroke="#8796a1" stroke-width="1.2"/><rect x="12" y="12" width="56" height="56" rx="12" fill="#58707f"/><path fill-rule="evenodd" d="M24 13.25c-5.937 0-10.75 4.813-10.75 10.75v8h-2.5v-8c0-7.318 5.932-13.25 13.25-13.25h8v2.5h-8zm32 0h-8v-2.5h8c7.318 0 13.25 5.932 13.25 13.25v8h-2.5v-8c0-5.937-4.813-10.75-10.75-10.75zM13.25 48v8c0 5.937 4.813 10.75 10.75 10.75h8v2.5h-8c-7.318 0-13.25-5.932-13.25-13.25v-8h2.5zm53.5 8v-8h2.5v8c0 7.318-5.932 13.25-13.25 13.25h-8v-2.5h8c5.937 0 10.75-4.813 10.75-10.75z" fill="#273239"/></svg>