<svg width="84" height="56" viewBox="0 0 84 56" fill="none" xmlns="http://www.w3.org/2000/svg">
<rect x="0.5" y="0.5" width="83" height="55" rx="1.5" stroke="#B6C0C6"/>
<path d="M57.7499 11.2H73.85C74.4625 11.2 74.9 11.6889 74.9 12.1778V25.6222C74.9 26.1926 74.375 26.6 73.85 26.6H57.7499C57.1374 26.6 56.7 26.1111 56.7 25.6222V12.1778C56.7 11.6889 57.2249 11.2 57.7499 11.2Z" fill="#8796A1"/>
<path d="M57.7499 29.4H73.85C74.4625 29.4 74.9 29.8889 74.9 30.3778V43.8222C74.9 44.3926 74.375 44.8 73.85 44.8H57.7499C57.1374 44.8 56.7 44.3111 56.7 43.8222V30.3778C56.7 29.8889 57.2249 29.4 57.7499 29.4Z" fill="#8796A1"/>
<rect x="37.1" y="11.2" width="16.8" height="33.6" rx="0.7" fill="#8796A1"/>
<rect x="9.09998" y="11.2" width="25.2" height="33.6" rx="1.05" fill="#8796A1"/>
</svg>
