<svg width="84" height="56" viewBox="0 0 84 56" fill="none" xmlns="http://www.w3.org/2000/svg">
<rect x="0.5" y="0.5" width="83" height="55" rx="1.5" stroke="#B6C0C6"/>
<path d="M37.45 11.2H53.55C54.1625 11.2 54.6 11.6889 54.6 12.1778V25.6222C54.6 26.1926 54.075 26.6 53.55 26.6H37.45C36.8375 26.6 36.4 26.1111 36.4 25.6222V12.1778C36.4 11.6889 36.925 11.2 37.45 11.2Z" fill="#8796A1"/>
<path d="M58.45 11.2H74.55C75.1625 11.2 75.6 11.6889 75.6 12.1778V25.6222C75.6 26.1926 75.075 26.6 74.55 26.6H58.45C57.8375 26.6 57.4 26.1111 57.4 25.6222V12.1778C57.4 11.6889 57.925 11.2 58.45 11.2Z" fill="#8796A1"/>
<path d="M37.45 29.4H53.55C54.1625 29.4 54.6 29.8889 54.6 30.3778V43.8222C54.6 44.3926 54.075 44.8 53.55 44.8H37.45C36.8375 44.8 36.4 44.3111 36.4 43.8222V30.3778C36.4 29.8889 36.925 29.4 37.45 29.4Z" fill="#8796A1"/>
<path d="M58.45 29.4H74.55C75.1625 29.4 75.6 29.8889 75.6 30.3778V43.8222C75.6 44.3926 75.075 44.8 74.55 44.8H58.45C57.8375 44.8 57.4 44.3111 57.4 43.8222V30.3778C57.4 29.8889 57.925 29.4 58.45 29.4Z" fill="#8796A1"/>
<rect x="8.40002" y="11.2" width="25.2" height="33.6" rx="1.05" fill="#8796A1"/>
</svg>
