<svg width="84" height="56" viewBox="0 0 84 56" fill="none" xmlns="http://www.w3.org/2000/svg">
<rect x="0.5" y="0.5" width="83" height="55" rx="1.5" stroke="#B6C0C6"/>
<path d="M9.45002 11.2H25.55C26.1625 11.2 26.6 11.6889 26.6 12.1778V25.6222C26.6 26.1926 26.075 26.6 25.55 26.6H9.45002C8.83752 26.6 8.40002 26.1111 8.40002 25.6222V12.1778C8.40002 11.6889 8.92502 11.2 9.45002 11.2Z" fill="#8796A1"/>
<path d="M9.45002 29.4H25.55C26.1625 29.4 26.6 29.8889 26.6 30.3778V43.8222C26.6 44.3926 26.075 44.8 25.55 44.8H9.45002C8.83752 44.8 8.40002 44.3111 8.40002 43.8222V30.3778C8.40002 29.8889 8.92502 29.4 9.45002 29.4Z" fill="#8796A1"/>
<rect x="29.4" y="11.2" width="25.2" height="33.6" rx="1.05" fill="#8796A1"/>
<path d="M58.45 11.2H74.55C75.1625 11.2 75.6 11.6889 75.6 12.1778V25.6222C75.6 26.1926 75.075 26.6 74.55 26.6H58.45C57.8375 26.6 57.4 26.1111 57.4 25.6222V12.1778C57.4 11.6889 57.925 11.2 58.45 11.2Z" fill="#8796A1"/>
<path d="M58.45 29.4H74.55C75.1625 29.4 75.6 29.8889 75.6 30.3778V43.8222C75.6 44.3926 75.075 44.8 74.55 44.8H58.45C57.8375 44.8 57.4 44.3111 57.4 43.8222V30.3778C57.4 29.8889 57.925 29.4 58.45 29.4Z" fill="#8796A1"/>
</svg>
