<svg width="84" height="56" viewBox="0 0 84 56" fill="none" xmlns="http://www.w3.org/2000/svg">
<rect x="0.5" y="0.5" width="83" height="55" rx="1.5" stroke="#B6C0C6"/>
<path d="M54.95 11.2H71.05C71.6625 11.2 72.1 11.6889 72.1 12.1778V25.6222C72.1 26.1926 71.575 26.6 71.05 26.6H54.95C54.3375 26.6 53.9 26.1111 53.9 25.6222V12.1778C53.9 11.6889 54.425 11.2 54.95 11.2Z" fill="#8796A1"/>
<path d="M54.95 29.4H71.05C71.6625 29.4 72.1 29.8889 72.1 30.3778V43.8222C72.1 44.3926 71.575 44.8 71.05 44.8H54.95C54.3375 44.8 53.9 44.3111 53.9 43.8222V30.3778C53.9 29.8889 54.425 29.4 54.95 29.4Z" fill="#8796A1"/>
<rect x="11.9" y="11.2" width="39.2" height="33.6" rx="1.05" fill="#8796A1"/>
</svg>
