<svg width="100" height="40" viewBox="0 0 100 40" fill="none" xmlns="http://www.w3.org/2000/svg">
<rect x="0.5" y="0.5" width="99" height="39" rx="2.5" stroke="#B6C0C6"/>
<rect x="14" y="12" width="15" height="4" rx="1" fill="#8796A1"/>
<rect x="15" y="18" width="13" height="2" rx="1" fill="#8796A1"/>
<rect x="15" y="24" width="13" height="2" rx="1" fill="#8796A1"/>
<rect x="16" y="21" width="11" height="2" rx="1" fill="#8796A1"/>
<rect x="16" y="27" width="11" height="2" rx="1" fill="#8796A1"/>
<rect x="33" y="12" width="15" height="4" rx="1" fill="#8796A1"/>
<rect x="34" y="18" width="13" height="2" rx="1" fill="#8796A1"/>
<rect x="34" y="24" width="13" height="2" rx="1" fill="#8796A1"/>
<rect x="35" y="21" width="11" height="2" rx="1" fill="#8796A1"/>
<rect x="35" y="27" width="11" height="2" rx="1" fill="#8796A1"/>
<rect x="52" y="12" width="15" height="4" rx="1" fill="#8796A1"/>
<rect x="53" y="18" width="13" height="2" rx="1" fill="#8796A1"/>
<rect x="53" y="24" width="13" height="2" rx="1" fill="#8796A1"/>
<rect x="54" y="21" width="11" height="2" rx="1" fill="#8796A1"/>
<rect x="54" y="27" width="11" height="2" rx="1" fill="#8796A1"/>
<rect x="71" y="12" width="15" height="4" rx="1" fill="#8796A1"/>
<rect x="72" y="18" width="13" height="2" rx="1" fill="#8796A1"/>
<rect x="72" y="24" width="13" height="2" rx="1" fill="#8796A1"/>
<rect x="73" y="21" width="11" height="2" rx="1" fill="#8796A1"/>
<rect x="73" y="27" width="11" height="2" rx="1" fill="#8796A1"/>
</svg>
