<svg xmlns="http://www.w3.org/2000/svg" width="195" height="32" fill="none" xmlns:v="https://vecta.io/nano"><g clip-path="url(#A)" fill="#fff"><path fill-rule="evenodd" d="M30.476 9.558h3.74l-.277-.139a3.13 3.13 0 0 1 3.186 3.186v1.247c0 .554-.416 1.108-1.108 1.108h-1.662l-3.879 15.377c-.138.831-.97 1.385-1.801 1.385H8.312c-.831 0-1.662-.554-1.801-1.385L2.632 14.961H.97c-.554 0-1.108-.415-1.108-1.108v-1.247A3.13 3.13 0 0 1 3.048 9.42h3.74L13.16.693c.554-.831 1.662-.97 2.494-.416s.97 1.662.416 2.494L11.221 9.42h14.684l-4.849-6.649c-.554-.831-.416-1.939.416-2.494s1.939-.416 2.493.416l6.511 8.866zm-17.87 6.926h8.173c.23 0 .416.186.416.416v7.481c0 .229-.186.416-.416.416h-8.173c-.229 0-.416-.186-.416-.416V16.9c0-.23.186-.416.416-.416zm10.251 0h1.801c.229 0 .416.186.416.416v7.481c0 .229-.186.416-.416.416h-1.801c-.23 0-.416-.186-.416-.416V16.9c0-.23.186-.416.416-.416z"/><path d="M50.009 26.182l-4.433-16.9c0-.277 0-.277.277-.277H48.9c.139 0 .277 0 .277.277l2.355 10.113 2.355-10.113a.3.3 0 0 1 .277-.277h3.048c.139 0 .277 0 .416.277l2.494 10.113 2.355-10.113a.3.3 0 0 1 .277-.277h2.909c.277 0 .277 0 .277.277l-4.156 16.9c0 .139-.139.277-.416.277h-2.909c-.139 0-.277 0-.277-.277l-2.494-10.805-2.355 10.805a.3.3 0 0 1-.277.277h-2.771c-.139 0-.277 0-.416-.277h.139zm18.562-.693c-.97-.693-1.662-1.662-2.078-3.048-.277-.831-.416-1.662-.416-2.494s0-1.801.416-2.632c.416-1.247 1.108-2.216 2.078-2.909s2.216-1.108 3.602-1.108 2.494.277 3.463.97 1.662 1.662 2.078 2.909c.277.831.416 1.662.416 2.632s0 1.801-.416 2.494c-.416 1.247-1.108 2.355-2.078 3.048s-2.216 1.108-3.602 1.108-2.632-.416-3.602-1.108l.138.139zm4.987-2.355c.416-.277.693-.831.831-1.385 0-.554.139-1.108.139-1.801s0-1.247-.139-1.801-.416-.97-.831-1.385a2.34 2.34 0 0 0-1.385-.416 2.34 2.34 0 0 0-1.385.416c-.416.277-.693.693-.831 1.385 0 .416-.138.97-.138 1.801s0 1.385.138 1.801c.139.554.416 1.108.831 1.385s.831.554 1.385.554.97-.139 1.385-.554zm9.005 2.355c-.97-.693-1.662-1.662-2.078-3.048-.277-.831-.416-1.662-.416-2.494s0-1.801.416-2.632c.416-1.247 1.108-2.216 2.078-2.909s2.216-1.108 3.602-1.108 2.493.277 3.463.97 1.662 1.662 2.078 2.909c.277.831.416 1.662.416 2.632s0 1.801-.416 2.494c-.416 1.247-1.108 2.355-2.078 3.048s-2.216 1.108-3.602 1.108-2.632-.416-3.602-1.108l.138.139zm4.987-2.355c.416-.277.693-.831.831-1.385 0-.554.138-1.108.138-1.801s0-1.247-.138-1.801-.416-.97-.831-1.385a2.34 2.34 0 0 0-1.385-.416 2.34 2.34 0 0 0-1.385.416c-.416.277-.693.693-.831 1.385 0 .416-.139.97-.139 1.801s0 1.385.139 1.801c.139.554.416 1.108.831 1.385s.831.554 1.385.554.97-.139 1.385-.554zm9.697 2.771c-.97-.554-1.801-1.247-2.216-2.078a6.07 6.07 0 0 1-.831-3.186v-5.818a6.07 6.07 0 0 1 .831-3.186c.554-.97 1.247-1.662 2.216-2.078s2.078-.693 3.463-.693 2.355.277 3.325.693 1.662 1.108 2.216 2.078c.554.831.831 1.939.831 3.048s0 .277-.277.277h-2.909v.139c-.138 0-.277 0-.277-.277 0-.831-.277-1.524-.831-2.078s-1.247-.831-2.078-.831-1.662.277-2.216.831-.831 1.247-.831 2.078v5.957c0 .831.277 1.524.831 2.078s1.247.831 2.216.831 1.524-.277 2.078-.831.831-1.247.831-2.078 0-.277.277-.277h2.909s.139.139.277.139 0 0 0 .139c0 1.108-.277 2.217-.831 3.048s-1.247 1.524-2.216 2.078-2.078.693-3.325.693-2.493-.277-3.463-.693zm20.225-11.914c.831.416 1.524.831 1.939 1.524s.693 1.385.693 2.217v8.45.277c0 .139 0 0-.277 0h-2.909-.277v-.277-.831c-.693.97-1.801 1.385-3.325 1.385s-2.355-.277-3.186-.97-1.247-1.524-1.247-2.771.416-2.216 1.385-3.048c.832-.693 2.217-1.108 3.879-1.108h2.494v-.554c0-.554-.139-.97-.554-1.247-.277-.277-.832-.416-1.524-.416s-.97 0-1.247.277c-.277.139-.554.416-.693.831a.3.3 0 0 1-.277.277l-3.047-.416c-.139 0-.277 0-.277-.277 0-.693.277-1.385.831-1.939a6.95 6.95 0 0 1 1.939-1.385c.831-.277 1.663-.416 2.771-.416s2.078.139 2.909.554v-.139zm-1.662 9.42c.554-.416.692-.831.692-1.524v-.831h-1.801c-.692 0-1.385.139-1.801.416s-.692.693-.692 1.247.138.831.415 1.108.693.416 1.247.416 1.385-.139 1.801-.554l.139-.277zm13.714-7.065h-.277-2.355v5.264c0 .554 0 .97.277 1.247s.554.416 1.108.416h.831.277v.277 2.355c0 .138 0 .277-.277.277h-1.524c-1.385 0-2.355-.277-3.047-.693s-.97-1.385-1.108-2.632v-6.649h-1.386-.277v-.277-2.216-.277h.277 1.386v-2.909-.277h.277 2.77.277v.277 2.909h2.355.277v.277 2.216.277l.139.139zm13.576 4.433c0 .139 0 .277-.277.277h-7.758c0 .277.138.693.277.97.416.97 1.247 1.385 2.632 1.385 1.108 0 1.939-.416 2.494-1.247 0 0 .138-.139.277-.139h.138l1.801 1.801v.277.139c-.554.693-1.247 1.247-2.078 1.524-.831.416-1.801.554-2.909.554s-2.632-.277-3.602-.97-1.662-1.524-2.078-2.77c-.415-.831-.554-1.939-.554-3.325s0-1.662.416-2.355c.415-1.247 1.108-2.078 1.939-2.771a5.74 5.74 0 0 1 3.463-1.108c1.385 0 3.048.416 4.018 1.385a6.01 6.01 0 0 1 1.801 3.879v2.078.416zm-8.035-2.909c0 .277 0 .416-.139.831h4.295v-.693c-.139-.554-.416-.831-.831-1.108a2.34 2.34 0 0 0-1.386-.416c-1.108 0-1.801.554-2.078 1.524l.139-.139zm18.009-4.156h.277 2.909.277v.277V25.35c0 2.217-.693 3.74-1.94 4.71s-2.909 1.385-4.848 1.385h-1.939c-.139 0-.278 0-.278-.277v-2.632c0-.277.278-.277.416-.277.554 0 1.108.139 1.662.139 1.109 0 1.94-.277 2.494-.693s.831-1.247.831-2.216c-.693.693-1.524.97-2.77.97s-2.078-.277-3.048-.831-1.524-1.385-1.94-2.494c-.277-.831-.415-1.801-.415-2.909s.138-2.355.415-3.186c.416-.97.97-1.801 1.801-2.494.832-.554 1.801-.97 2.909-.97s2.217.416 2.91 1.108v-.554-.277l.277-.139zm0 6.234v-1.247c0-.277 0-.554-.139-.831-.138-.416-.416-.831-.693-1.108s-.831-.416-1.246-.416-.97 0-1.247.416-.554.693-.831 1.108c-.277.554-.416 1.108-.416 2.078s0 1.662.277 1.939a2.16 2.16 0 0 0 .831 1.108c.416.277.832.416 1.386.416s.969 0 1.385-.416a2.45 2.45 0 0 0 .693-1.108c0-.554.138-1.247.138-2.078l-.138.139zm8.034 5.541c-.969-.693-1.662-1.662-2.078-3.048-.277-.831-.415-1.662-.415-2.494s0-1.801.415-2.632c.416-1.247 1.109-2.216 2.078-2.909s2.217-1.108 3.602-1.108 2.493.277 3.463.97 1.663 1.662 2.078 2.909c.277.831.416 1.662.416 2.632s0 1.801-.416 2.494c-.415 1.247-1.108 2.355-2.078 3.048s-2.216 1.108-3.602 1.108-2.632-.416-3.601-1.108l.138.139zm4.987-2.355c.416-.277.693-.831.831-1.385 0-.554.139-1.108.139-1.801s0-1.247-.139-1.801-.415-.97-.831-1.385c-.415-.277-.831-.416-1.385-.416s-.97.139-1.385.416-.693.693-.831 1.385c0 .416-.139.97-.139 1.801s0 1.385.139 1.801c.138.554.415 1.108.831 1.385s.831.554 1.385.554.97-.139 1.385-.554zm14.684-9.281s.139.139.139.416l-.554 2.909c0 .139 0 .277-.416.139h-.831-.554c-.554 0-1.108.277-1.524.693s-.693.97-.693 1.524v6.788.277h-.277-2.909-.277v-.277-12.19-.277h.277 2.909.277v.277.97c.693-.97 1.663-1.524 2.771-1.524s1.108 0 1.385.416l.277-.139zm1.801 17.454v-.277-2.355-.277h.277c.693 0 1.247 0 1.662-.139s.693-.277.97-.554.416-.693.554-1.247v-.139l-4.156-12.467c0-.139 0-.277.278-.277h3.047c.139 0 .277 0 .416.277l2.078 8.035 2.078-8.035c0-.139.138-.277.415-.277h3.048.277v.277l-4.295 13.022c-.415 1.247-.831 2.078-1.246 2.77a4.51 4.51 0 0 1-1.801 1.385c-.831.277-1.94.416-3.325.416h-.138l-.139-.139z"/></g><defs><clipPath id="A"><path fill="#fff" d="M0 0h194.078v32H0z"/></clipPath></defs></svg>