<svg xmlns="http://www.w3.org/2000/svg" width="100" height="100" fill="none" xmlns:v="https://vecta.io/nano"><rect x=".75" y=".75" width="98.5" height="98.5" rx="2.25" fill="#fff"/><rect x=".75" y=".75" width="98.5" height="98.5" rx="2.25" stroke="#8796a1" stroke-width="1.5"/><path d="M1.5 3A1.5 1.5 0 0 1 3 1.5h94A1.5 1.5 0 0 1 98.5 3v65.5h-97V3z" fill="#58707f"/><g clip-path="url(#A)"><path d="M65.276 17.616C63.819 16.177 61.149 15 59.344 15h-3.28c0 3.577-2.938 6.475-6.563 6.475S42.938 18.577 42.938 15h-3.281c-1.805 0-4.476 1.178-5.933 2.616L27 24.25l7.499 7.401 1.875-1.85V52h26.25V29.8l1.875 1.85 7.499-7.401-6.724-6.634h.001z" fill="#fff"/></g><g fill="#58707f"><rect x="20" y="75" width="60" height="4" rx="2"/><rect x="34" y="83" width="32" height="9" rx="1"/></g><rect x="38" y="86.5" width="24" height="2" rx="1" fill="#fff"/><defs><clipPath id="A"><path fill="#fff" transform="translate(27 15)" d="M0 0h45v37H0z"/></clipPath></defs></svg>