<svg xmlns="http://www.w3.org/2000/svg" width="100" height="100" fill="none" xmlns:v="https://vecta.io/nano"><rect x=".75" y=".75" width="98.5" height="98.5" rx="2.25" fill="#fff"/><rect x=".75" y=".75" width="98.5" height="98.5" rx="2.25" stroke="#8796a1" stroke-width="1.5"/><path d="M48.5 1.5H97A1.5 1.5 0 0 1 98.5 3v94a1.5 1.5 0 0 1-1.5 1.5H48.5v-97z" fill="#58707f"/><g clip-path="url(#A)"><path d="M88.173 36.262C86.909 35.018 84.596 34 83.031 34h-2.843c0 3.094-2.546 5.6-5.688 5.6s-5.687-2.506-5.687-5.6H65.97c-1.564 0-3.879 1.019-5.142 2.262L55 42l6.499 6.4 1.625-1.6V66h22.75V46.8l1.625 1.6 6.499-6.4-5.827-5.738h.001z" fill="#fff"/></g><rect x="6" y="36" width="39" height="4" rx="2" fill="#58707f"/><g fill="#8796a1"><rect x="9" y="48" width="33" height="2" rx="1"/><rect x="12" y="44" width="28" height="2" rx="1"/></g><rect x="13" y="56" width="26" height="9" rx="1" fill="#58707f"/><rect x="16.25" y="59.5" width="19.5" height="2" rx="1" fill="#fff"/><defs><clipPath id="A"><path fill="#fff" transform="translate(55 34)" d="M0 0h39v32H0z"/></clipPath></defs></svg>