<svg xmlns="http://www.w3.org/2000/svg" width="100" height="100" fill="none" xmlns:v="https://vecta.io/nano"><rect x=".75" y=".75" width="98.5" height="98.5" rx="2.25" fill="#fff"/><rect x=".75" y=".75" width="98.5" height="98.5" rx="2.25" stroke="#8796a1" stroke-width="1.5"/><g clip-path="url(#A)"><path d="M65.276 34.616C63.819 33.177 61.149 32 59.344 32h-3.28c0 3.577-2.938 6.475-6.563 6.475S42.938 35.577 42.938 32h-3.281c-1.805 0-4.476 1.178-5.933 2.616L27 41.25l7.499 7.401 1.875-1.85V69h26.25V46.8l1.875 1.85 7.499-7.401-6.724-6.634h.001z" fill="#58707f"/></g><path d="M1.5 58.5h97V97a1.5 1.5 0 0 1-1.5 1.5H3A1.5 1.5 0 0 1 1.5 97V58.5z" fill="#000" fill-opacity=".6"/><g fill="#fff"><rect x="20" y="72" width="60" height="4" rx="2"/><rect x="34" y="80" width="32" height="9" rx="1"/></g><rect x="38" y="83.5" width="24" height="2" rx="1" fill="#58707f"/><defs><clipPath id="A"><path fill="#fff" transform="translate(27 32)" d="M0 0h45v37H0z"/></clipPath></defs></svg>